# Blender v2.82 (sub 7) OBJ File: 'stepenice.blend'
# www.blender.org
mtllib stepenice.mtl
o Cube
v 5.000000 -5.000000 -3.500000
v 5.000000 -5.000000 3.500000
v -5.000000 5.000000 -3.500000
v -5.000000 -5.000000 -3.500000
v -5.000000 5.000000 3.500000
v -5.000000 -5.000000 3.500000
v -4.199994 5.000000 -3.500000
v 5.000000 -4.199994 -3.500000
v -4.199994 3.850001 -3.500000
v -3.049994 3.850001 -3.500000
v -3.049994 2.700002 -3.500000
v -1.899995 2.700002 -3.500000
v -1.899995 1.550002 -3.500000
v -0.749996 1.550002 -3.500000
v -0.749996 0.400003 -3.500000
v 0.400003 0.400003 -3.500000
v 0.400003 -0.749996 -3.500000
v 1.550002 -0.749996 -3.500000
v 1.550002 -1.899995 -3.500000
v 2.700002 -1.899995 -3.500000
v 2.700002 -3.049994 -3.500000
v 3.850001 -3.049994 -3.500000
v 3.850001 -4.199994 -3.500000
v 5.000000 -4.199994 3.500000
v -4.199994 5.000000 3.500000
v 3.850001 -4.199994 3.500000
v 3.850001 -3.049994 3.500000
v 2.700002 -3.049994 3.500000
v 2.700002 -1.899995 3.500000
v 1.550002 -1.899995 3.500000
v 1.550002 -0.749996 3.500000
v 0.400003 -0.749996 3.500000
v 0.400003 0.400003 3.500000
v -0.749996 0.400003 3.500000
v -0.749996 1.550002 3.500000
v -1.899995 1.550002 3.500000
v -1.899995 2.700002 3.500000
v -3.049994 2.700002 3.500000
v -3.049994 3.850001 3.500000
v -4.199994 3.850001 3.500000
vt 0.375000 0.750000
vt 0.395000 0.750000
vt 0.395000 0.759583
vt 0.423750 0.759583
vt 0.423750 0.769167
vt 0.452500 0.769167
vt 0.452500 0.778750
vt 0.481250 0.778750
vt 0.481250 0.788333
vt 0.586667 0.788333
vt 0.682500 0.797917
vt 0.692083 0.797917
vt 0.711250 0.807500
vt 0.720833 0.807500
vt 0.740000 0.817083
vt 0.749583 0.817083
vt 0.768750 0.826667
vt 0.625000 0.980000
vt 0.625000 1.000000
vt 0.375000 1.000000
vt 0.375000 0.000000
vt 0.625000 0.000000
vt 0.625000 0.250000
vt 0.375000 0.250000
vt 0.125000 0.500000
vt 0.375000 0.500000
vt 0.125000 0.750000
vt 0.855000 0.500000
vt 0.875000 0.500000
vt 0.875000 0.750000
vt 0.855000 0.750000
vt 0.395000 0.500000
vt 0.768750 0.423333
vt 0.749583 0.432917
vt 0.740000 0.432917
vt 0.720833 0.442500
vt 0.711250 0.442500
vt 0.692083 0.452083
vt 0.682500 0.452083
vt 0.586667 0.461667
vt 0.481250 0.461667
vt 0.481250 0.471250
vt 0.452500 0.471250
vt 0.452500 0.480833
vt 0.423750 0.480833
vt 0.423750 0.490417
vt 0.395000 0.490417
vt 0.625000 0.270000
vn 0.0000 0.0000 1.0000
vn -1.0000 0.0000 0.0000
vn 0.0000 -1.0000 0.0000
vn 0.0000 1.0000 0.0000
vn 1.0000 0.0000 0.0000
vn 0.0000 0.0000 -1.0000
usemtl Material
s off
f 2/1/1 24/2/1 26/3/1 27/4/1 28/5/1 29/6/1 30/7/1 31/8/1 32/9/1 33/10/1 34/11/1 35/12/1 36/13/1 37/14/1 38/15/1 39/16/1 40/17/1 25/18/1 5/19/1 6/20/1
f 6/21/2 5/22/2 3/23/2 4/24/2
f 4/25/3 1/26/3 2/1/3 6/27/3
f 7/28/4 3/29/4 5/30/4 25/31/4
f 1/26/5 8/32/5 24/2/5 2/1/5
f 7/28/5 25/31/5 40/17/5 9/33/5
f 9/33/4 40/17/4 39/16/4 10/34/4
f 10/34/5 39/16/5 38/15/5 11/35/5
f 11/35/4 38/15/4 37/14/4 12/36/4
f 12/36/5 37/14/5 36/13/5 13/37/5
f 13/37/4 36/13/4 35/12/4 14/38/4
f 14/38/5 35/12/5 34/11/5 15/39/5
f 15/39/4 34/11/4 33/10/4 16/40/4
f 16/40/5 33/10/5 32/9/5 17/41/5
f 17/41/4 32/9/4 31/8/4 18/42/4
f 18/42/5 31/8/5 30/7/5 19/43/5
f 19/43/4 30/7/4 29/6/4 20/44/4
f 20/44/5 29/6/5 28/5/5 21/45/5
f 21/45/4 28/5/4 27/4/4 22/46/4
f 22/46/5 27/4/5 26/3/5 23/47/5
f 23/47/4 26/3/4 24/2/4 8/32/4
f 4/24/6 3/23/6 7/48/6 9/33/6 10/34/6 11/35/6 12/36/6 13/37/6 14/38/6 15/39/6 16/40/6 17/41/6 18/42/6 19/43/6 20/44/6 21/45/6 22/46/6 23/47/6 8/32/6 1/26/6
